<?xml version="1.0" standalone="no"?>
<!DOCTYPE svg PUBLIC "-//W3C//DTD SVG 20010904//EN"
 "http://www.w3.org/TR/2001/REC-SVG-20010904/DTD/svg10.dtd">
<svg version="1.0" xmlns="http://www.w3.org/2000/svg"
 width="700.000000pt" height="700.000000pt" viewBox="0 0 700.000000 700.000000"
 preserveAspectRatio="xMidYMid meet">
<metadata>
Created by potrace 1.11, written by Peter Selinger 2001-2013
</metadata>
<g transform="translate(0.000000,700.000000) scale(0.100000,-0.100000)"
fill="#000000" stroke="none">
<path d="M759 6996 c-2 -2 -24 -6 -49 -9 -94 -12 -297 -94 -340 -137 -3 -3
-21 -17 -40 -31 -108 -81 -213 -221 -266 -354 -67 -168 -63 60 -61 -2985 1
-1521 5 -2774 9 -2785 3 -11 11 -40 18 -65 20 -75 79 -201 125 -265 135 -190
331 -313 560 -353 52 -9 5504 -9 5570 0 290 40 567 272 665 556 52 152 49 -13
49 2932 0 2421 -2 2743 -15 2805 -9 39 -17 77 -19 87 -7 33 -69 164 -101 215
-111 173 -281 298 -497 366 l-72 22 -2766 3 c-1521 1 -2767 0 -2770 -2z m2004
-985 c81 -28 109 -45 163 -99 58 -57 91 -119 107 -200 9 -45 12 -562 11 -2143
-1 -2350 7 -2141 -80 -2259 -61 -83 -146 -136 -249 -155 -22 -4 -1335 -7
-1450 -4 -40 2 -123 30 -166 58 -66 42 -117 99 -152 171 l-32 65 -2 2115 c-3
2325 -7 2175 57 2278 54 88 149 158 246 181 22 5 361 9 766 10 682 0 730 -1
781 -18z m3029 4 c138 -36 257 -157 287 -291 7 -33 10 -437 10 -1264 l0 -1215
-22 -66 c-47 -137 -149 -227 -302 -265 -29 -7 -1443 -7 -1483 0 -149 27 -259
130 -313 291 -11 32 -13 273 -13 1260 -1 1370 -6 1281 73 1395 44 63 137 132
208 153 73 22 1472 24 1555 2z"/>
</g>
</svg>
